<svg id="visual" viewBox="0 0 900 600" width="900" height="600" xmlns="http://www.w3.org/2000/svg" xmlns:xlink="http://www.w3.org/1999/xlink" version="1.1"><rect x="0" y="0" width="900" height="600" fill="#DFFFBB"></rect><defs><linearGradient id="grad1_0" x1="33.3%" y1="0%" x2="100%" y2="100%"><stop offset="20%" stop-color="#dfffbb" stop-opacity="1"></stop><stop offset="80%" stop-color="#dfffbb" stop-opacity="1"></stop></linearGradient></defs><defs><linearGradient id="grad2_0" x1="0%" y1="0%" x2="66.7%" y2="100%"><stop offset="20%" stop-color="#dfffbb" stop-opacity="1"></stop><stop offset="80%" stop-color="#dfffbb" stop-opacity="1"></stop></linearGradient></defs><g transform="translate(900, 0)"><path d="M0 324.5C-50.5 305.8 -101.1 287.1 -151.5 262.4C-201.9 237.7 -252.2 207 -281 162.2C-309.8 117.5 -317.2 58.8 -324.5 0L0 0Z" fill="#80CC28"></path></g><g transform="translate(0, 600)"><path d="M0 -324.5C44.9 -296.1 89.9 -267.7 141 -244.2C192.1 -220.7 249.4 -202.1 281 -162.2C312.6 -122.4 318.6 -61.2 324.5 0L0 0Z" fill="#80CC28"></path></g></svg>