<svg id="visual" viewBox="0 0 900 600" width="900" height="600" xmlns="http://www.w3.org/2000/svg" xmlns:xlink="http://www.w3.org/1999/xlink" version="1.1"><rect x="0" y="0" width="900" height="600" fill="#DFFFBB"></rect><path d="M0 367L21.5 378.8C43 390.7 86 414.3 128.8 425.5C171.7 436.7 214.3 435.3 257.2 428.8C300 422.3 343 410.7 385.8 399.8C428.7 389 471.3 379 514.2 385C557 391 600 413 642.8 410.7C685.7 408.3 728.3 381.7 771.2 379.3C814 377 857 399 878.5 410L900 421L900 601L878.5 601C857 601 814 601 771.2 601C728.3 601 685.7 601 642.8 601C600 601 557 601 514.2 601C471.3 601 428.7 601 385.8 601C343 601 300 601 257.2 601C214.3 601 171.7 601 128.8 601C86 601 43 601 21.5 601L0 601Z" fill="#fdae61"></path><path d="M0 459L21.5 461C43 463 86 467 128.8 466C171.7 465 214.3 459 257.2 459C300 459 343 465 385.8 468.3C428.7 471.7 471.3 472.3 514.2 463.3C557 454.3 600 435.7 642.8 434.2C685.7 432.7 728.3 448.3 771.2 447C814 445.7 857 427.3 878.5 418.2L900 409L900 601L878.5 601C857 601 814 601 771.2 601C728.3 601 685.7 601 642.8 601C600 601 557 601 514.2 601C471.3 601 428.7 601 385.8 601C343 601 300 601 257.2 601C214.3 601 171.7 601 128.8 601C86 601 43 601 21.5 601L0 601Z" fill="#fa9b3e"></path><path d="M0 492L21.5 484.2C43 476.3 86 460.7 128.8 454.7C171.7 448.7 214.3 452.3 257.2 459.5C300 466.7 343 477.3 385.8 475C428.7 472.7 471.3 457.3 514.2 455.2C557 453 600 464 642.8 468.3C685.7 472.7 728.3 470.3 771.2 464.2C814 458 857 448 878.5 443L900 438L900 601L878.5 601C857 601 814 601 771.2 601C728.3 601 685.7 601 642.8 601C600 601 557 601 514.2 601C471.3 601 428.7 601 385.8 601C343 601 300 601 257.2 601C214.3 601 171.7 601 128.8 601C86 601 43 601 21.5 601L0 601Z" fill="#f68712"></path><path d="M0 487L21.5 493.7C43 500.3 86 513.7 128.8 513.7C171.7 513.7 214.3 500.3 257.2 502.3C300 504.3 343 521.7 385.8 529.2C428.7 536.7 471.3 534.3 514.2 533.2C557 532 600 532 642.8 532.8C685.7 533.7 728.3 535.3 771.2 532C814 528.7 857 520.3 878.5 516.2L900 512L900 601L878.5 601C857 601 814 601 771.2 601C728.3 601 685.7 601 642.8 601C600 601 557 601 514.2 601C471.3 601 428.7 601 385.8 601C343 601 300 601 257.2 601C214.3 601 171.7 601 128.8 601C86 601 43 601 21.5 601L0 601Z" fill="#d57511"></path><path d="M0 551L21.5 553.8C43 556.7 86 562.3 128.8 558.5C171.7 554.7 214.3 541.3 257.2 539.3C300 537.3 343 546.7 385.8 547.7C428.7 548.7 471.3 541.3 514.2 537.5C557 533.7 600 533.3 642.8 536.2C685.7 539 728.3 545 771.2 548C814 551 857 551 878.5 551L900 551L900 601L878.5 601C857 601 814 601 771.2 601C728.3 601 685.7 601 642.8 601C600 601 557 601 514.2 601C471.3 601 428.7 601 385.8 601C343 601 300 601 257.2 601C214.3 601 171.7 601 128.8 601C86 601 43 601 21.5 601L0 601Z" fill="#b5630f"></path></svg>