<?xml version="1.0" encoding="utf-8"?>
<!-- Generator: Adobe Illustrator 19.0.0, SVG Export Plug-In . SVG Version: 6.00 Build 0)  -->
<svg version="1.1" id="layer" xmlns="http://www.w3.org/2000/svg" xmlns:xlink="http://www.w3.org/1999/xlink" x="0px" y="0px"
	 viewBox="-153 -46 652 652" style="enable-background:new -153 -46 652 652;" xml:space="preserve">
<style type="text/css">
	.st0{fill:#393845;}
</style>
<path class="st0" d="M424,251c5.9,0,9.9,1.8,12,5.3c1.9-2.1,4.1-3.8,6.7-4.9c2.7-1.1,5.7-1.6,8.6-1.6c4.5-0.2,8.9,1.3,12.4,4.1
	c3.2,2.6,4.9,6.5,4.8,10.5c0.1,3.3-1.3,6.6-3.9,8.7c-5.9,4.3-14,4.4-20.1,0.3c-1.2-0.9-2.2-2.1-2.9-3.5c-0.7-1.3-1-2.8-1-4.3
	c-0.1-2.5,1-4.9,2.8-6.6c1.9-1.7,4.5-2.7,7.1-2.6c0.2-0.3,0.3-0.7,0.3-1.1c0-0.9-0.7-1.4-2.1-1.4c-1.5,0-2.9,0.3-4.3,0.9
	c-1.3,0.6-2.6,1.5-3.5,2.6c-1.1,1.1-1.9,2.4-2.5,3.8c-0.6,1.4-0.9,2.9-0.8,4.5c-0.1,2.6,0.8,5.2,2.3,7.3c1.7,2.2,4,4,6.6,5
	c0.8,0.3,1.4,0.8,1.9,1.4c0.4,0.8,0.5,1.7,0.5,2.6v18.1c0,2.1-1.2,3.3-3.5,3.3h-21c-1.6,0.2-3-0.9-3.2-2.5c0-0.3,0-0.5,0-0.8v-36.5
	c0.1-1.9-0.3-3.8-1-5.5c-0.9-1.5-2.2-2.7-3.8-3.5c-0.3-0.2-0.6-0.4-0.9-0.7c-0.1-0.2-0.2-0.4-0.2-0.7V252c0-0.7,0.4-1,1.2-1L424,251
	z M384,279.5c0,1.6,1.3,3.1,4,4.3c2.8,1.4,5.9,2.1,9,2c6.1,0.2,11.9-2.2,16.1-6.6c0.3-0.3,0.6-0.6,0.9-0.8c0.2-0.1,0.5-0.2,0.8-0.2
	h1.2c0.2-0.1,0.4-0.1,0.6,0c0.2,0.1,0.3,0.2,0.4,0.4c0.2,0.6,0.3,1.2,0.3,1.9c0,4.2-1.2,8.3-3.5,11.8c-2.4,3.7-5.8,6.7-9.8,8.7
	c-4.4,2.3-9.2,3.5-14.2,3.4c-5.2,0.1-10.4-1.1-15-3.4c-4.4-2.2-8.1-5.5-10.7-9.7c-2.7-4.3-4-9.3-4-14.3c-0.1-5,1.2-9.8,3.7-14.1
	c2.5-4.2,6.2-7.5,10.5-9.7c5-2.5,10.5-3.7,16-3.5c4.2-0.1,8.5,0.7,12.4,2.1c3.4,1.3,6.4,3.4,8.7,6.2c2.1,2.6,3.2,5.9,3.2,9.3
	c0.1,4.2-1.6,8.3-4.8,11.1c-3.4,2.9-7.8,4.5-12.3,4.3c-4.5,0.2-8.9-1.6-12.1-5c-0.2,0-0.4,0-0.6,0.1c-0.2,0.1-0.4,0.2-0.5,0.3
	c-0.2,0.2-0.3,0.3-0.4,0.5c-0.1,0.2-0.1,0.4-0.1,0.6L384,279.5z M387.1,272.4c0.2,0.3,0.4,0.5,0.7,0.6c0.3,0.1,0.6,0.2,0.9,0.2
	c1.2,0,1.9-0.7,1.9-2.1v-14.5c0-1.4-0.6-2.1-1.9-2.1c-0.3,0-0.6,0.1-0.9,0.2c-0.3,0.1-0.5,0.4-0.7,0.6V272.4z M338.3,242.2
	c0-1.9,0.8-3.6,2.1-4.8c1.4-1.4,3.4-2.1,5.3-2c1.3,0,2.5,0.3,3.6,0.9c0.2-0.2,0.3-0.4,0.4-0.6c0.1-0.2,0.1-0.4,0.1-0.7
	c0-0.6-0.4-1.1-1.2-1.5c-1-0.4-2.2-0.6-3.3-0.6c-2.6-0.1-5.2,0.9-7.1,2.7c-0.9,0.8-1.7,1.9-2.1,3c-0.5,1.1-0.8,2.4-0.8,3.6
	c0,2,0.7,4,2,5.5c1.5,1.9,3.5,3.3,5.7,4.3c4.5,1.9,8.4,4.8,11.6,8.4c2.4,3.2,3.6,7.2,3.5,11.2c0.1,4.2-1.1,8.3-3.4,11.8
	c-2.4,3.6-5.7,6.4-9.6,8.1c-4.6,2-9.6,3-14.6,2.9c-6.2,0.2-12.4-1.4-17.7-4.5c-0.3,0.2-0.5,0.5-0.6,0.8c-0.1,0.3-0.2,0.6-0.2,0.9
	c0,1,0.8,1.9,2.4,2.8c2.1,1,4.4,1.8,6.7,2.1c3.1,0.6,6.2,0.9,9.4,0.9c2.8,0,5.3-0.2,7.7-0.5c2.4-0.3,4.6-0.5,6.6-0.5
	c3.9-0.2,7.7,1,10.7,3.4c2.6,2.4,4.1,5.9,3.9,9.5c0.1,3.6-1.2,7-3.5,9.7c-2.8,3-6.3,5.3-10.3,6.4c-5.1,1.7-10.5,2.6-15.9,2.5
	c-6,0.2-12-0.8-17.6-2.9c-4.5-1.9-6.7-4.5-6.7-7.7c0-1.8,0.7-3.4,1.8-4.7c-3.2-3.1-4.9-7.4-4.7-11.8c0-2.7,0.6-5.3,1.8-7.6
	c1.2-2.3,2.9-4.3,5.1-5.8c-4.4-3.9-6.9-9.5-6.8-15.3c0-4,1.1-7.9,3.3-11.3c2.3-3.5,5.6-6.3,9.4-8.1c4.3-2.1,9-3.1,13.8-3.1
	c0.6,0,1.2,0,1.8,0c0.6,0,1.3,0.1,1.9,0.3c-0.6-1-1-2.1-1.4-3.2c-0.4-1.4-0.6-2.9-0.6-4.4c-0.1-3.7,1.5-7.1,4.3-9.5
	c3.1-2.5,7-3.9,11-3.7c3.6-0.2,7.1,0.9,10,3c2.5,1.9,3.9,4.8,3.8,7.9c0,1.3-0.3,2.7-0.8,3.9c-0.6,1.2-1.4,2.3-2.4,3.1
	c-2.3,1.9-5.2,2.8-8.1,2.7c-2.6,0.1-5.2-0.6-7.4-2.1c-0.9-0.6-1.7-1.5-2.1-2.5C338.5,244.4,338.2,243.3,338.3,242.2z M342.8,317.8
	c-4.4,1.7-9.1,2.6-13.9,2.6c-6.2,0.1-12.2-1.5-17.5-4.6c-0.3,0.2-0.5,0.5-0.6,0.8c-0.1,0.3-0.2,0.6-0.2,1c0,1.5,1.9,2.9,5.7,4.1
	c4.2,1.3,8.6,1.9,13,1.8c3.4,0.1,6.7-0.3,10-1.1c2.9-0.7,4.3-1.8,4.3-3.1c0-0.3-0.1-0.5-0.2-0.8C343.3,318.2,343.1,318,342.8,317.8
	L342.8,317.8z M330.3,290c1.2,0,1.8-0.9,1.8-2.8v-30c0-1.9-0.6-2.8-1.8-2.8c-1.2,0-1.8,1-1.8,2.8v29.9
	C328.5,289,329.1,290,330.3,290 M280.6,242.2c0-0.9,0.2-1.9,0.6-2.7c0.4-0.8,0.9-1.5,1.6-2.1c1.4-1.3,3.4-2,5.3-2
	c1.3,0,2.5,0.3,3.6,0.9c0.2-0.2,0.3-0.4,0.4-0.6c0.1-0.2,0.2-0.4,0.1-0.7c0-0.6-0.4-1.1-1.2-1.5c-1.1-0.4-2.2-0.7-3.3-0.6
	c-2.6-0.1-5.2,0.9-7.1,2.7c-0.9,0.8-1.7,1.9-2.1,3c-0.5,1.1-0.8,2.3-0.8,3.6c0,2,0.7,4,2,5.5c1.5,1.9,3.4,3.3,5.7,4.3
	c4.5,1.9,8.4,4.8,11.6,8.4c2.4,3.2,3.6,7.2,3.5,11.2c0.1,4.2-1.1,8.3-3.4,11.8c-2.4,3.6-5.7,6.4-9.6,8.1c-4.6,2-9.6,3-14.6,2.9
	c-6.2,0.2-12.4-1.4-17.7-4.5c-0.2,0.2-0.5,0.5-0.6,0.8c-0.1,0.3-0.2,0.6-0.2,1c0,0.9,0.8,1.9,2.4,2.8c2.1,1,4.4,1.8,6.7,2.1
	c3.1,0.6,6.2,0.9,9.4,0.9c2.8,0,5.3-0.3,7.7-0.5s4.6-0.4,6.6-0.5c3.9-0.2,7.7,1,10.7,3.4c2.6,2.4,4,5.9,3.8,9.5c0,3.6-1.2,7-3.5,9.7
	c-2.8,3-6.3,5.2-10.3,6.4c-5.1,1.7-10.5,2.6-15.8,2.5c-6,0.2-12-0.8-17.6-2.9c-4.5-1.9-6.7-4.5-6.7-7.7c0-1.8,0.7-3.4,1.8-4.7
	c-3.2-3.1-4.9-7.3-4.7-11.8c0-2.7,0.6-5.3,1.8-7.6c1.2-2.3,2.9-4.3,5.1-5.8c-4.4-3.9-6.9-9.5-6.8-15.3c0-4,1.1-7.9,3.3-11.3
	c2.3-3.5,5.6-6.4,9.4-8.2c4.3-2.1,9-3.1,13.8-3.1c0.6,0,1.2,0,1.8,0c0.6,0,1.2,0.1,1.8,0.3c-0.6-1-1-2.1-1.3-3.2
	c-0.4-1.4-0.6-2.9-0.6-4.4c0-1.8,0.3-3.6,1.1-5.2c0.7-1.7,1.9-3.1,3.2-4.3c3.1-2.5,7-3.8,11-3.6c3.6-0.2,7.1,0.9,10,3
	c1.2,0.9,2.2,2.1,2.8,3.5c0.7,1.4,1,2.9,1,4.4c0.1,2.7-1.1,5.3-3.2,7c-2.3,1.9-5.2,2.8-8.1,2.7c-2.6,0.1-5.2-0.6-7.4-2.1
	C281.7,246.5,280.6,244.4,280.6,242.2L280.6,242.2z M285.1,317.8c-4.4,1.7-9.1,2.6-13.9,2.6c-6.2,0.2-12.3-1.4-17.6-4.5
	c-0.5,0.4-0.8,1.1-0.8,1.7c0,1.5,1.9,2.9,5.7,4.1c4.2,1.3,8.6,1.9,13,1.8c3.4,0.1,6.7-0.3,10-1.1c2.9-0.8,4.3-1.8,4.3-3.1
	c0-0.3-0.1-0.5-0.2-0.8C285.5,318.2,285.3,318,285.1,317.8L285.1,317.8z M272.7,289.9c1.2,0,1.9-0.9,1.9-2.8v-29.9
	c0-1.9-0.6-2.8-1.9-2.8c-1.2,0-1.8,0.9-1.8,2.8v29.9C270.8,289,271.4,290,272.7,289.9 M204.6,251c1-0.1,2,0.2,2.7,0.8
	c0.6,0.7,0.9,1.6,0.8,2.5v35.4c0,0.7,0.1,1.3,0.5,1.8c0.2,0.2,0.4,0.4,0.6,0.5c0.3,0.1,0.5,0.2,0.8,0.2c0.3,0,0.7,0,1-0.2
	c0.3-0.2,0.6-0.4,0.8-0.7v-37.2c-0.1-0.9,0.2-1.8,0.8-2.5c0.8-0.6,1.8-0.9,2.7-0.8h18.5c1-0.1,1.9,0.2,2.7,0.8
	c0.6,0.7,0.9,1.6,0.8,2.5v33.5c-0.1,0.8,0.1,1.6,0.3,2.4c0.1,0.2,0.2,0.4,0.4,0.5c0.2,0.1,0.4,0.2,0.6,0.2c0.3,0,0.6-0.1,0.8-0.2
	c0.2-0.2,0.4-0.4,0.6-0.6c0.4-1,0.6-2.1,0.7-3.2c0-0.7,0.2-1.5,0.4-2.1c0.1-0.1,0.2-0.2,0.3-0.3c0.2,0,0.3,0,0.5,0h1.7
	c0.2,0,0.4,0.1,0.6,0.2c0.2,0.1,0.3,0.3,0.3,0.5c0.2,0.8,0.3,1.6,0.3,2.4c0.3,4.6-1.3,9.2-4.4,12.6c-3.3,3.2-7.7,4.8-12.3,4.6
	c-3.1,0.1-6.1-0.7-8.7-2.1c-2.6-1.5-4.7-3.8-6-6.4c-1.5,2.7-3.7,5-6.4,6.4c-2.8,1.5-6,2.2-9.2,2.1c-4.2,0.3-8.4-1.3-11.3-4.3
	c-2.8-3.6-4.2-8-3.9-12.6v-24c0.1-1.9-0.3-3.8-1-5.5c-0.9-1.5-2.3-2.7-3.8-3.5c-0.3-0.2-0.6-0.4-0.9-0.7c-0.1-0.2-0.2-0.4-0.2-0.7
	V252c0-0.7,0.4-1,1.2-1L204.6,251z M122.4,241.9c0.1-1.9-0.3-3.8-1-5.5c-0.9-1.5-2.3-2.7-3.8-3.5c-0.3-0.2-0.6-0.4-0.9-0.7
	c-0.1-0.2-0.2-0.4-0.2-0.7v-1.2c0-0.7,0.4-1,1.2-1h26.7c1-0.1,2,0.2,2.7,0.8c0.6,0.7,0.9,1.6,0.9,2.5V256c3.4-4.2,8.6-6.6,14-6.3
	c4.3-0.3,8.4,1.3,11.3,4.4c2.8,3.6,4.2,8,3.9,12.6V300c0.1,0.9-0.2,1.8-0.8,2.5c-0.8,0.6-1.8,0.9-2.7,0.8h-18.6
	c-1,0.1-2-0.2-2.7-0.8c-0.3-0.3-0.5-0.8-0.6-1.2c-0.1-0.4-0.2-0.9-0.2-1.3v-35.4c0-0.7-0.1-1.3-0.5-1.8c-0.2-0.2-0.4-0.4-0.6-0.5
	c-0.2-0.1-0.5-0.2-0.8-0.2c-0.3,0-0.7,0-1,0.2c-0.3,0.1-0.6,0.4-0.8,0.7v37.2c0.1,0.9-0.2,1.8-0.8,2.5c-0.8,0.6-1.8,0.9-2.7,0.8H126
	c-1,0.1-2-0.2-2.7-0.8c-0.3-0.3-0.5-0.7-0.6-1.2c-0.1-0.4-0.2-0.9-0.1-1.3L122.4,241.9z M86.7,279.5c0,1.6,1.3,3.1,4,4.3
	c2.8,1.4,5.9,2.1,9,2c6,0.2,11.9-2.1,16.1-6.5c0.3-0.3,0.6-0.6,0.9-0.8c0.2-0.1,0.5-0.2,0.8-0.2h1.2c0.2-0.1,0.4-0.1,0.6,0
	c0.2,0.1,0.3,0.2,0.4,0.4c0.2,0.6,0.3,1.2,0.3,1.9c0,4.2-1.2,8.3-3.5,11.8c-2.4,3.7-5.8,6.7-9.8,8.7c-4.4,2.2-9.2,3.4-14.1,3.4
	c-5.2,0.1-10.4-1.1-15-3.4c-4.4-2.2-8.1-5.5-10.7-9.7c-2.7-4.3-4.1-9.3-4-14.3c-0.1-5,1.2-9.8,3.7-14.1c2.6-4.2,6.3-7.5,10.7-9.7
	c5-2.5,10.5-3.7,16-3.5c4.2-0.1,8.5,0.7,12.4,2.1c3.4,1.3,6.3,3.4,8.6,6.2c2.1,2.6,3.2,5.9,3.2,9.3c0.1,4.2-1.7,8.3-4.9,11.1
	c-3.4,2.9-7.8,4.5-12.3,4.3c-4.5,0.2-8.9-1.6-12.1-5c-0.2,0-0.4,0-0.6,0.1c-0.2,0.1-0.4,0.2-0.5,0.3c-0.2,0.2-0.3,0.3-0.4,0.5
	c-0.1,0.2-0.1,0.4-0.1,0.6L86.7,279.5z M89.8,272.4c0.2,0.3,0.4,0.5,0.7,0.6c0.3,0.1,0.6,0.2,0.9,0.2c1.2,0,1.8-0.7,1.8-2.1v-14.5
	c0-1.4-0.6-2.1-1.8-2.1c-0.3,0-0.6,0.1-0.9,0.2c-0.3,0.1-0.5,0.4-0.7,0.6V272.4z M26.9,279.5c0,1.6,1.3,3.1,4,4.3
	c2.8,1.4,5.9,2.1,9,2c6.1,0.2,11.9-2.2,16.1-6.6c0.3-0.3,0.6-0.6,0.9-0.8c0.2-0.1,0.5-0.2,0.8-0.2h1.2c0.2-0.1,0.4-0.1,0.6,0
	c0.2,0.1,0.3,0.2,0.4,0.4c0.2,0.6,0.3,1.2,0.3,1.9c0,4.2-1.2,8.3-3.5,11.8c-2.4,3.7-5.8,6.7-9.8,8.7c-4.4,2.3-9.2,3.5-14.2,3.4
	c-5.2,0.1-10.4-1.1-15-3.4c-4.4-2.2-8.1-5.5-10.7-9.7c-2.7-4.3-4-9.3-4-14.3c-0.1-5,1.2-9.8,3.7-14.1c2.5-4.2,6.2-7.5,10.5-9.7
	c5-2.5,10.5-3.7,16-3.5c4.2-0.1,8.5,0.7,12.4,2.1c3.4,1.3,6.3,3.4,8.6,6.2c2.1,2.6,3.2,5.9,3.2,9.3c0.1,2.1-0.3,4.2-1.2,6.1
	c-0.8,1.9-2.1,3.6-3.7,5c-3.4,2.9-7.8,4.5-12.3,4.3c-4.5,0.2-8.9-1.6-12.1-5c-0.2,0-0.4,0-0.6,0.1c-0.2,0.1-0.4,0.2-0.5,0.3
	c-0.2,0.2-0.3,0.3-0.3,0.6c-0.1,0.2-0.1,0.4,0,0.6L26.9,279.5z M30,272.4c0.2,0.3,0.4,0.5,0.7,0.6c0.3,0.1,0.6,0.2,0.9,0.2
	c1.2,0,1.8-0.7,1.8-2.1v-14.5c0-1.4-0.6-2.1-1.8-2.1c-0.3,0-0.7,0.1-0.9,0.2c-0.3,0.1-0.5,0.4-0.7,0.6V272.4z M-41.7,251
	c5.9,0,9.9,1.8,12.1,5.3c1.8-2.1,4.1-3.8,6.7-4.9c2.7-1.1,5.7-1.6,8.6-1.6c4.5-0.2,8.9,1.3,12.4,4.1c3.1,2.6,4.9,6.5,4.8,10.5
	c0,1.7-0.3,3.3-1,4.8c-0.7,1.5-1.7,2.9-2.9,3.9c-2.8,2.3-6.4,3.5-10.1,3.4c-3.6,0.2-7.1-0.9-10-3.1c-2.5-1.8-3.9-4.8-3.9-7.8
	c0-1.2,0.2-2.5,0.7-3.6c0.5-1.1,1.2-2.2,2.1-3c1.9-1.7,4.5-2.7,7.1-2.6c0.2-0.3,0.3-0.7,0.3-1c0-1-0.7-1.4-2.1-1.4
	c-1.5,0-2.9,0.3-4.3,0.9c-1.4,0.6-2.6,1.4-3.6,2.5c-4,4.3-4.4,10.8-1,15.6c1.7,2.2,4,4,6.6,5c0.8,0.3,1.4,0.8,1.9,1.4
	c0.4,0.8,0.5,1.7,0.5,2.6V300c0,2.1-1.2,3.3-3.5,3.3h-20.8c-1.6,0.2-3-0.9-3.2-2.5c0-0.3,0-0.5,0-0.8v-36.3c0.1-1.9-0.3-3.8-1.1-5.5
	c-0.9-1.5-2.3-2.7-3.8-3.5c-0.3-0.2-0.6-0.4-0.9-0.7c-0.1-0.2-0.2-0.4-0.2-0.7V252c0-0.7,0.4-1,1.2-1H-41.7z M-55.6,226
	c-2.3-2.3-5.4-3.4-8.6-3.1h-55.9c-3.2-0.3-6.3,0.9-8.6,3.1c-2,2.8-3,6.3-2.7,9.8v22.1c-0.3,3.5,0.7,6.9,2.8,9.6
	c2.3,2.2,5.4,3.4,8.6,3.1h7c1,0.1,2-0.2,2.8-0.8c0.6-0.8,0.9-1.8,0.8-2.8v-25c0-1.5,0.6-2.1,1.8-2.1c0.3,0,0.7,0,1,0.2
	c0.3,0.1,0.6,0.4,0.8,0.6v59c-0.1,1,0.2,2,0.8,2.8c0.4,0.3,0.8,0.5,1.2,0.7c0.5,0.1,0.9,0.2,1.4,0.2h20.7c0.9,0.1,1.9-0.2,2.6-0.8
	c0.6-0.8,0.9-1.8,0.8-2.8v-59.1c0.2-0.2,0.5-0.4,0.7-0.5c0.3-0.2,0.6-0.2,1-0.2c1.2,0,1.7,0.7,1.7,2.1v25.1c-0.1,1,0.2,2,0.8,2.8
	c0.8,0.6,1.8,0.9,2.8,0.8h7c3.2,0.3,6.3-0.9,8.6-3.1c2.1-2.8,3.1-6.2,2.8-9.6v-22.2C-52.5,232.3-53.5,228.8-55.6,226z"/>
</svg>
